<svg xmlns="http://www.w3.org/2000/svg" xmlns:xlink="http://www.w3.org/1999/xlink" width="1554" zoomAndPan="magnify" viewBox="0 0 1165.5 201.000001" height="268" preserveAspectRatio="xMidYMid meet" version="1.0"><defs><clipPath id="c072dadfa9"><path d="M 156 55.445312 L 217 55.445312 L 217 182.601562 L 156 182.601562 Z M 156 55.445312 " clip-rule="nonzero"/></clipPath><clipPath id="e64aba566f"><path d="M 193.945312 57.890625 L 192.453125 74.21875 C 197.933594 62.527344 205.894531 56.339844 216.304688 55.652344 L 216.304688 99.335938 C 209.378906 99.335938 204.292969 100.269531 201.058594 102.140625 C 197.824219 104.011719 195.816406 106.621094 195.070312 109.953125 C 194.320312 113.285156 193.945312 120.976562 193.945312 133.019531 L 193.945312 182.035156 L 156.152344 182.035156 L 156.152344 57.890625 Z M 193.945312 57.890625 " clip-rule="nonzero"/></clipPath><clipPath id="5a7671ca22"><path d="M 223 55.445312 L 308.695312 55.445312 L 308.695312 184.816406 L 223 184.816406 Z M 223 55.445312 " clip-rule="nonzero"/></clipPath><clipPath id="400e0a58e5"><path d="M 270.464844 122.996094 C 264.414062 127.425781 260.902344 131.136719 259.9375 134.132812 C 258.96875 137.128906 258.484375 141.425781 258.484375 147.039062 C 258.484375 153.464844 258.902344 157.605469 259.746094 159.488281 C 260.59375 161.367188 262.253906 162.292969 264.75 162.292969 C 267.121094 162.292969 268.664062 161.554688 269.378906 160.09375 C 270.09375 158.628906 270.453125 154.78125 270.453125 148.539062 Z M 249.160156 105.972656 L 223.039062 105.972656 L 223.039062 97.652344 C 223.039062 88.050781 224.144531 80.648438 226.363281 75.433594 C 228.582031 70.21875 233.019531 65.625 239.695312 61.632812 C 246.375 57.644531 255.039062 55.644531 265.695312 55.644531 C 278.484375 55.644531 288.117188 57.902344 294.601562 62.429688 C 301.089844 66.957031 304.992188 72.5 306.296875 79.078125 C 307.597656 85.652344 308.253906 99.207031 308.253906 119.722656 L 308.253906 182.023438 L 271.5 182.023438 L 271.5 170.96875 C 269.191406 175.40625 266.214844 178.730469 262.5625 180.949219 C 258.910156 183.167969 254.5625 184.273438 249.507812 184.273438 C 242.902344 184.273438 236.832031 182.414062 231.308594 178.710938 C 225.785156 175.007812 223.03125 166.878906 223.03125 154.34375 L 223.03125 144.144531 C 223.03125 134.847656 224.492188 128.519531 227.425781 125.148438 C 230.363281 121.773438 237.625 117.855469 249.230469 113.355469 C 261.636719 108.488281 268.285156 105.214844 269.160156 103.535156 C 270.035156 101.851562 270.472656 98.421875 270.472656 93.246094 C 270.472656 86.757812 269.984375 82.53125 269.019531 80.570312 C 268.054688 78.609375 266.441406 77.625 264.203125 77.625 C 261.648438 77.625 260.054688 78.449219 259.4375 80.101562 C 258.820312 81.753906 258.503906 86.042969 258.503906 92.96875 L 258.503906 96.640625 C 258.503906 101.792969 254.324219 105.972656 249.167969 105.972656 " clip-rule="nonzero"/></clipPath><clipPath id="c41a535643"><path d="M 313.128906 57.664062 L 399.625 57.664062 L 399.625 182.601562 L 313.128906 182.601562 Z M 313.128906 57.664062 " clip-rule="nonzero"/></clipPath><clipPath id="16976eef94"><path d="M 399.472656 57.890625 L 381.789062 182.035156 L 332.394531 182.035156 L 313.410156 57.890625 L 338.851562 57.890625 C 343.589844 57.890625 347.578125 61.445312 348.125 66.140625 L 357.796875 148.53125 C 358.632812 141.863281 360.046875 125.625 362.058594 99.804688 C 362.902344 88.410156 363.847656 77.285156 364.882812 66.429688 C 365.339844 61.582031 369.402344 57.882812 374.265625 57.882812 Z M 399.472656 57.890625 " clip-rule="nonzero"/></clipPath><clipPath id="ac2a3981f7"><path d="M 403.320312 55.445312 L 491 55.445312 L 491 184.816406 L 403.320312 184.816406 Z M 403.320312 55.445312 " clip-rule="nonzero"/></clipPath><clipPath id="32939a8b34"><path d="M 452.707031 101.953125 L 452.707031 92.878906 C 452.707031 86.449219 452.367188 82.308594 451.679688 80.429688 C 450.996094 78.550781 449.59375 77.625 447.472656 77.625 C 444.855469 77.625 443.234375 78.417969 442.605469 80.011719 C 441.980469 81.605469 441.671875 85.890625 441.671875 92.878906 L 441.671875 101.953125 Z M 481.222656 122.160156 L 441.660156 122.160156 L 441.660156 149.007812 C 441.660156 154.621094 442.070312 158.242188 442.875 159.863281 C 443.679688 161.488281 445.242188 162.300781 447.550781 162.300781 C 450.417969 162.300781 452.339844 161.226562 453.304688 159.078125 C 454.269531 156.929688 454.757812 152.761719 454.757812 146.589844 L 454.757812 130.203125 L 490.585938 130.203125 L 490.585938 139.367188 C 490.585938 147.039062 490.101562 152.929688 489.136719 157.046875 C 488.167969 161.167969 485.910156 165.566406 482.347656 170.242188 C 478.785156 174.917969 474.289062 178.433594 468.835938 180.769531 C 463.382812 183.109375 456.539062 184.28125 448.296875 184.28125 C 440.316406 184.28125 433.273438 183.128906 427.152344 180.820312 C 421.035156 178.511719 416.289062 175.347656 412.882812 171.328125 C 409.480469 167.308594 407.132812 162.878906 405.820312 158.042969 C 404.507812 153.207031 403.859375 146.183594 403.859375 136.949219 L 403.859375 100.738281 C 403.859375 89.882812 405.320312 81.324219 408.257812 75.054688 C 411.191406 68.789062 415.988281 63.992188 422.664062 60.648438 C 429.34375 57.304688 437.003906 55.644531 445.679688 55.644531 C 456.289062 55.644531 465.035156 57.652344 471.921875 61.671875 C 478.804688 65.691406 483.640625 71.027344 486.417969 77.671875 C 489.195312 84.320312 490.578125 93.652344 490.578125 105.695312 L 490.578125 112.789062 C 490.578125 117.964844 486.378906 122.160156 481.203125 122.160156 " clip-rule="nonzero"/></clipPath><clipPath id="8096cbc83d"><path d="M 101 60.621094 L 140.878906 60.621094 L 140.878906 182.601562 L 101 182.601562 Z M 101 60.621094 " clip-rule="nonzero"/></clipPath><clipPath id="d356441129"><path d="M 140.558594 182.035156 L 101.175781 182.035156 L 101.175781 79.953125 L 140.558594 60.886719 Z M 140.558594 182.035156 " clip-rule="nonzero"/></clipPath><clipPath id="ce805db807"><path d="M 7.070312 4.4375 L 185.976562 4.4375 L 185.976562 96 L 7.070312 96 Z M 7.070312 4.4375 " clip-rule="nonzero"/></clipPath><clipPath id="4a09de7337"><path d="M 40.101562 40.765625 L 88.589844 53.097656 C 76.328125 62.03125 63.375 71.285156 50.746094 79.78125 L 14.875 69.613281 L 7.613281 74.550781 L 40.429688 95.84375 C 67.304688 86.289062 142.839844 58.210938 182.261719 17.78125 C 186.363281 12.90625 185.308594 9.472656 184.820312 8.429688 C 183.226562 5.015625 174.929688 5.75 173.277344 5.710938 C 171.625 5.671875 166.300781 2.46875 149.632812 9.800781 C 144.011719 12.277344 129.214844 23.175781 110.460938 37.015625 Z M 40.101562 40.765625 " clip-rule="nonzero"/></clipPath><clipPath id="23e743eb66"><path d="M 502.9375 30.574219 L 541.855469 30.574219 L 541.855469 182 L 502.9375 182 Z M 502.9375 30.574219 " clip-rule="nonzero"/></clipPath><clipPath id="65287f1da4"><path d="M 555.421875 55.644531 L 642.761719 55.644531 L 642.761719 199.742188 L 555.421875 199.742188 Z M 555.421875 55.644531 " clip-rule="nonzero"/></clipPath><clipPath id="62f2e3e8cf"><path d="M 604.625 94.003906 C 604.625 86.332031 604.347656 81.6875 603.78125 80.0625 C 603.214844 78.441406 601.660156 77.636719 599.101562 77.636719 C 596.605469 77.636719 595.003906 78.570312 594.289062 80.441406 C 593.570312 82.3125 593.210938 86.839844 593.210938 94.003906 L 593.210938 145.449219 C 593.210938 152.929688 593.589844 157.609375 594.335938 159.480469 C 595.082031 161.347656 596.707031 162.285156 599.203125 162.285156 C 601.628906 162.285156 603.144531 161.429688 603.742188 159.707031 C 604.335938 157.984375 604.625 153.828125 604.625 147.21875 Z M 593.871094 57.894531 L 593.210938 68.859375 C 596.574219 64.421875 600.289062 61.109375 604.347656 58.929688 C 608.40625 56.75 612.824219 55.644531 617.632812 55.644531 C 623.492188 55.644531 628.558594 57.21875 632.835938 60.371094 C 637.113281 63.527344 639.769531 67.15625 640.835938 71.269531 C 641.902344 75.378906 642.429688 82.371094 642.429688 92.222656 L 642.429688 144.523438 C 642.429688 155.808594 641.75 163.835938 640.417969 168.613281 C 639.085938 173.390625 636.328125 177.191406 632.1875 180.027344 C 628.050781 182.863281 623.035156 184.285156 617.171875 184.285156 C 612.496094 184.285156 608.160156 183.191406 604.167969 181 C 600.179688 178.8125 596.527344 175.570312 593.222656 171.25 L 593.222656 199.707031 L 555.421875 199.707031 L 555.421875 57.894531 Z M 593.871094 57.894531 " clip-rule="nonzero"/></clipPath><clipPath id="22a3adf37a"><path d="M 654.863281 30.574219 L 693.777344 30.574219 L 693.777344 182 L 654.863281 182 Z M 654.863281 30.574219 " clip-rule="nonzero"/></clipPath><clipPath id="ed0b0f49e1"><path d="M 705.660156 55.644531 L 790.882812 55.644531 L 790.882812 184.480469 L 705.660156 184.480469 Z M 705.660156 55.644531 " clip-rule="nonzero"/></clipPath><clipPath id="fc86e16af5"><path d="M 753.09375 123 C 747.042969 127.429688 743.53125 131.140625 742.566406 134.132812 C 741.601562 137.128906 741.113281 141.429688 741.113281 147.039062 C 741.113281 153.46875 741.53125 157.609375 742.375 159.488281 C 743.222656 161.367188 744.882812 162.292969 747.382812 162.292969 C 749.75 162.292969 751.292969 161.558594 752.007812 160.09375 C 752.726562 158.632812 753.082031 154.78125 753.082031 148.542969 Z M 731.710938 105.976562 L 705.660156 105.976562 L 705.660156 97.644531 C 705.660156 88.042969 706.765625 80.640625 708.984375 75.425781 C 711.203125 70.214844 715.640625 65.617188 722.316406 61.625 C 728.992188 57.636719 737.648438 55.644531 748.316406 55.644531 C 761.105469 55.644531 770.734375 57.902344 777.222656 62.429688 C 783.710938 66.960938 787.613281 72.5 788.914062 79.078125 C 790.21875 85.65625 790.875 99.207031 790.875 119.726562 L 790.875 182.027344 L 754.117188 182.027344 L 754.117188 170.972656 C 751.808594 175.410156 748.835938 178.734375 745.183594 180.953125 C 741.53125 183.171875 737.183594 184.273438 732.128906 184.273438 C 725.519531 184.273438 719.449219 182.414062 713.9375 178.710938 C 708.425781 175.011719 705.660156 166.871094 705.660156 154.34375 L 705.660156 144.144531 C 705.660156 134.851562 707.121094 128.523438 710.058594 125.148438 C 712.992188 121.777344 720.257812 117.855469 731.859375 113.359375 C 744.265625 108.492188 750.914062 105.21875 751.789062 103.535156 C 752.664062 101.855469 753.09375 98.433594 753.09375 93.25 C 753.09375 86.761719 752.605469 82.53125 751.640625 80.570312 C 750.675781 78.609375 749.0625 77.625 746.824219 77.625 C 744.265625 77.625 742.675781 78.453125 742.058594 80.105469 C 741.441406 81.753906 741.121094 86.042969 741.121094 92.96875 L 741.121094 96.5625 C 741.121094 101.757812 736.914062 105.964844 731.71875 105.964844 " clip-rule="nonzero"/></clipPath><clipPath id="f8dccb39a5"><path d="M 803.886719 55.644531 L 891.074219 55.644531 L 891.074219 182 L 803.886719 182 Z M 803.886719 55.644531 " clip-rule="nonzero"/></clipPath><clipPath id="d92218fc53"><path d="M 842.335938 57.894531 L 841.679688 69.328125 C 844.425781 64.769531 847.769531 61.347656 851.738281 59.070312 C 855.707031 56.789062 860.265625 55.644531 865.441406 55.644531 C 871.929688 55.644531 877.230469 57.179688 881.339844 60.234375 C 885.449219 63.289062 888.105469 67.136719 889.292969 71.785156 C 890.476562 76.433594 891.074219 84.183594 891.074219 95.03125 L 891.074219 182.027344 L 853.28125 182.027344 L 853.28125 96.0625 C 853.28125 87.515625 853.003906 82.3125 852.433594 80.441406 C 851.867188 78.570312 850.316406 77.636719 847.757812 77.636719 C 845.070312 77.636719 843.390625 78.710938 842.703125 80.859375 C 842.015625 83.007812 841.679688 88.769531 841.679688 98.125 L 841.679688 182.035156 L 803.886719 182.035156 L 803.886719 57.894531 Z M 842.335938 57.894531 " clip-rule="nonzero"/></clipPath><clipPath id="a2a4f2bead"><path d="M 904.078125 55.644531 L 991.265625 55.644531 L 991.265625 182 L 904.078125 182 Z M 904.078125 55.644531 " clip-rule="nonzero"/></clipPath><clipPath id="5b32d842cc"><path d="M 942.527344 57.894531 L 941.871094 69.328125 C 944.617188 64.769531 947.960938 61.347656 951.929688 59.070312 C 955.902344 56.789062 960.457031 55.644531 965.632812 55.644531 C 972.121094 55.644531 977.421875 57.179688 981.53125 60.234375 C 985.640625 63.289062 988.300781 67.136719 989.484375 71.785156 C 990.667969 76.433594 991.265625 84.183594 991.265625 95.03125 L 991.265625 182.027344 L 953.472656 182.027344 L 953.472656 96.0625 C 953.472656 87.515625 953.195312 82.3125 952.625 80.441406 C 952.058594 78.570312 950.507812 77.636719 947.949219 77.636719 C 945.273438 77.636719 943.582031 78.710938 942.894531 80.859375 C 942.207031 83.007812 941.859375 88.769531 941.859375 98.125 L 941.859375 182.035156 L 904.078125 182.035156 L 904.078125 57.894531 Z M 942.527344 57.894531 " clip-rule="nonzero"/></clipPath><clipPath id="0dd35e5fbe"><path d="M 1003.148438 55.644531 L 1089.867188 55.644531 L 1089.867188 184.371094 L 1003.148438 184.371094 Z M 1003.148438 55.644531 " clip-rule="nonzero"/></clipPath><clipPath id="ab69dad5a9"><path d="M 1051.972656 101.957031 L 1051.972656 92.878906 C 1051.972656 86.453125 1051.636719 82.3125 1050.941406 80.433594 C 1050.242188 78.550781 1048.851562 77.625 1046.730469 77.625 C 1044.113281 77.625 1042.492188 78.421875 1041.863281 80.015625 C 1041.238281 81.605469 1040.929688 85.894531 1040.929688 92.878906 L 1040.929688 101.957031 Z M 1080.484375 122.15625 L 1040.9375 122.15625 L 1040.9375 149.011719 C 1040.9375 154.625 1041.347656 158.246094 1042.152344 159.867188 C 1042.960938 161.488281 1044.523438 162.304688 1046.832031 162.304688 C 1049.695312 162.304688 1051.617188 161.230469 1052.582031 159.082031 C 1053.546875 156.933594 1054.035156 152.761719 1054.035156 146.59375 L 1054.035156 130.203125 L 1089.867188 130.203125 L 1089.867188 139.371094 C 1089.867188 147.042969 1089.378906 152.933594 1088.414062 157.050781 C 1087.449219 161.171875 1085.1875 165.570312 1081.625 170.246094 C 1078.066406 174.921875 1073.566406 178.433594 1068.113281 180.773438 C 1062.660156 183.113281 1055.816406 184.285156 1047.578125 184.285156 C 1039.597656 184.285156 1032.542969 183.132812 1026.429688 180.824219 C 1020.320312 178.515625 1015.566406 175.351562 1012.164062 171.332031 C 1008.757812 167.308594 1006.410156 162.882812 1005.097656 158.046875 C 1003.785156 153.210938 1003.148438 146.175781 1003.148438 136.941406 L 1003.148438 100.742188 C 1003.148438 89.886719 1004.609375 81.328125 1007.546875 75.058594 C 1010.480469 68.789062 1015.277344 63.984375 1021.953125 60.652344 C 1028.628906 57.316406 1036.292969 55.644531 1044.960938 55.644531 C 1055.566406 55.644531 1064.3125 57.65625 1071.199219 61.675781 C 1078.085938 65.695312 1082.921875 71.03125 1085.695312 77.675781 C 1088.472656 84.324219 1089.867188 93.65625 1089.867188 105.695312 L 1089.867188 112.773438 C 1089.867188 117.957031 1085.667969 122.15625 1080.484375 122.15625 " clip-rule="nonzero"/></clipPath><clipPath id="eaa562a523"><path d="M 1102.214844 55.644531 L 1162.367188 55.644531 L 1162.367188 182.054688 L 1102.214844 182.054688 Z M 1102.214844 55.644531 " clip-rule="nonzero"/></clipPath><clipPath id="c69e2cb8d7"><path d="M 1140.007812 57.894531 L 1138.515625 74.222656 C 1143.996094 62.519531 1151.949219 56.332031 1162.367188 55.644531 L 1162.367188 99.339844 C 1155.441406 99.339844 1150.355469 100.273438 1147.121094 102.144531 C 1143.886719 104.015625 1141.878906 106.621094 1141.132812 109.957031 C 1140.386719 113.289062 1140.007812 120.980469 1140.007812 133.019531 L 1140.007812 182.035156 L 1102.214844 182.035156 L 1102.214844 57.894531 Z M 1140.007812 57.894531 " clip-rule="nonzero"/></clipPath></defs><g clip-path="url(#c072dadfa9)"><g clip-path="url(#e64aba566f)"><path fill="#26397d" d="M 2.636719 0 L 495.730469 0 L 495.730469 189.253906 L 2.636719 189.253906 Z M 2.636719 0 " fill-opacity="1" fill-rule="nonzero"/></g></g><g clip-path="url(#5a7671ca22)"><g clip-path="url(#400e0a58e5)"><path fill="#26397d" d="M 2.636719 0 L 495.730469 0 L 495.730469 189.253906 L 2.636719 189.253906 Z M 2.636719 0 " fill-opacity="1" fill-rule="nonzero"/></g></g><g clip-path="url(#c41a535643)"><g clip-path="url(#16976eef94)"><path fill="#26397d" d="M 2.636719 0 L 495.730469 0 L 495.730469 189.253906 L 2.636719 189.253906 Z M 2.636719 0 " fill-opacity="1" fill-rule="nonzero"/></g></g><g clip-path="url(#ac2a3981f7)"><g clip-path="url(#32939a8b34)"><path fill="#26397d" d="M 2.636719 0 L 495.730469 0 L 495.730469 189.253906 L 2.636719 189.253906 Z M 2.636719 0 " fill-opacity="1" fill-rule="nonzero"/></g></g><g clip-path="url(#8096cbc83d)"><g clip-path="url(#d356441129)"><path fill="#26397d" d="M 2.636719 0 L 495.730469 0 L 495.730469 189.253906 L 2.636719 189.253906 Z M 2.636719 0 " fill-opacity="1" fill-rule="nonzero"/></g></g><g clip-path="url(#ce805db807)"><g clip-path="url(#4a09de7337)"><path fill="#26397d" d="M 2.636719 0 L 495.730469 0 L 495.730469 189.253906 L 2.636719 189.253906 Z M 2.636719 0 " fill-opacity="1" fill-rule="nonzero"/></g></g><g clip-path="url(#23e743eb66)"><path fill="#26397d" d="M 502.9375 30.574219 L 541.855469 30.574219 L 541.855469 181.984375 L 502.9375 181.984375 Z M 502.9375 30.574219 " fill-opacity="1" fill-rule="nonzero"/></g><g clip-path="url(#65287f1da4)"><g clip-path="url(#62f2e3e8cf)"><path fill="#4aa1d9" d="M 555.421875 55.644531 L 642.421875 55.644531 L 642.421875 199.742188 L 555.421875 199.742188 Z M 555.421875 55.644531 " fill-opacity="1" fill-rule="nonzero"/></g></g><g clip-path="url(#22a3adf37a)"><path fill="#4aa1d9" d="M 654.863281 30.574219 L 693.777344 30.574219 L 693.777344 181.984375 L 654.863281 181.984375 Z M 654.863281 30.574219 " fill-opacity="1" fill-rule="nonzero"/></g><g clip-path="url(#ed0b0f49e1)"><g clip-path="url(#fc86e16af5)"><path fill="#4aa1d9" d="M 705.660156 55.644531 L 790.882812 55.644531 L 790.882812 184.148438 L 705.660156 184.148438 Z M 705.660156 55.644531 " fill-opacity="1" fill-rule="nonzero"/></g></g><g clip-path="url(#f8dccb39a5)"><g clip-path="url(#d92218fc53)"><path fill="#4aa1d9" d="M 803.886719 55.644531 L 891.074219 55.644531 L 891.074219 182 L 803.886719 182 Z M 803.886719 55.644531 " fill-opacity="1" fill-rule="nonzero"/></g></g><g clip-path="url(#a2a4f2bead)"><g clip-path="url(#5b32d842cc)"><path fill="#4aa1d9" d="M 904.078125 55.644531 L 991.265625 55.644531 L 991.265625 182 L 904.078125 182 Z M 904.078125 55.644531 " fill-opacity="1" fill-rule="nonzero"/></g></g><g clip-path="url(#0dd35e5fbe)"><g clip-path="url(#ab69dad5a9)"><path fill="#4aa1d9" d="M 1003.148438 55.644531 L 1089.867188 55.644531 L 1089.867188 184.371094 L 1003.148438 184.371094 Z M 1003.148438 55.644531 " fill-opacity="1" fill-rule="nonzero"/></g></g><g clip-path="url(#eaa562a523)"><g clip-path="url(#c69e2cb8d7)"><path fill="#4aa1d9" d="M 1102.214844 55.644531 L 1162.367188 55.644531 L 1162.367188 182.054688 L 1102.214844 182.054688 Z M 1102.214844 55.644531 " fill-opacity="1" fill-rule="nonzero"/></g></g></svg>